<svg width="1368" height="186" viewBox="0 0 1368 186" fill="none" xmlns="http://www.w3.org/2000/svg">
<path d="M111.687 52.2499L111.88 91.5891H47.5468V106.514H99.7691V141.935H47.5468V182.764H2.24887V52.2499H111.714H111.687Z" fill="#0090FF"/>
<path fill-rule="evenodd" clip-rule="evenodd" d="M0 50.0016H111.714L111.714 52.2499L113.935 52.2389L114.139 93.8374H49.7946V104.265H102.017V144.184H49.7946V185.013H0V50.0016ZM109.449 54.4983H4.49669V180.516H45.298V139.687H97.5202V108.762H45.298V89.3407H109.62L109.449 54.4983Z" fill="black"/>
<path d="M126.997 182.792V52.2499H172.322V182.792H126.997Z" fill="#0090FF"/>
<path fill-rule="evenodd" clip-rule="evenodd" d="M124.748 50.0016H174.57V185.04H124.748V50.0016ZM129.244 54.4983V180.544H170.073V54.4983H129.244Z" fill="black"/>
<path d="M191.688 182.792V52.2499H237.014V143.425H303.223L303.029 182.764H191.688V182.792Z" fill="#0090FF"/>
<path fill-rule="evenodd" clip-rule="evenodd" d="M189.439 50.0016H239.261V141.177H305.481L305.266 185.013H191.688L191.688 182.792H189.439V50.0016ZM193.936 180.516V54.4983H234.765V145.674H300.963L300.792 180.516H193.936Z" fill="black"/>
<path d="M323.333 148.86V126.487H366.23V148.86H323.333Z" fill="#0090FF"/>
<path fill-rule="evenodd" clip-rule="evenodd" d="M321.084 124.239H368.478V151.109H321.084V124.239ZM325.58 128.735V146.612H363.982V128.735H325.58Z" fill="black"/>
<path d="M382.455 52.2499H447.726C460.417 52.2499 470.707 54.981 478.596 60.4433C486.486 65.9055 490.431 73.4368 490.431 83.0095C490.431 94.7064 484.638 103.396 473.079 109.107V111.148C482.265 113.631 489.548 117.797 494.9 123.645C500.252 129.494 502.928 136.639 502.928 145.08C502.928 157.026 498.1 166.267 488.473 172.861C478.845 179.454 466.486 182.737 451.451 182.737H382.455V52.2499ZM427.974 87.6993V102.983H439.34C441.961 102.983 444.002 102.265 445.492 100.831C446.982 99.3962 447.726 97.5755 447.726 95.3409C447.726 92.9684 446.982 91.1201 445.492 89.7407C444.002 88.3614 441.961 87.6993 439.34 87.6993H427.974ZM427.974 127.038V145.88H442.706C445.823 145.88 448.306 144.97 450.154 143.177C452.002 141.384 452.94 139.094 452.94 136.363C452.94 133.632 452.002 131.232 450.154 129.549C448.306 127.866 445.74 127.038 442.512 127.038H427.974Z" fill="#0090FF"/>
<path fill-rule="evenodd" clip-rule="evenodd" d="M380.207 50.0016H447.726C460.728 50.0016 471.506 52.8001 479.876 58.5947C488.371 64.4764 492.679 72.6981 492.679 83.0095C492.679 89.2468 491.128 94.7884 487.961 99.5485C485.243 103.634 481.4 107.045 476.525 109.822C484.729 112.459 491.447 116.541 496.559 122.127C502.316 128.419 505.176 136.117 505.176 145.08C505.176 157.75 499.996 167.694 489.742 174.716C479.644 181.631 466.806 184.985 451.45 184.985H380.207V50.0016ZM384.703 54.4983V180.488H451.45C466.165 180.488 478.044 177.277 487.202 171.006C496.204 164.841 500.679 156.301 500.679 145.08C500.679 137.161 498.188 130.569 493.241 125.163C488.231 119.689 481.351 115.713 472.492 113.319L470.83 112.87V107.71L472.083 107.091C477.591 104.37 481.59 101.007 484.217 97.0576C486.837 93.121 488.182 88.4691 488.182 83.0095C488.182 74.1755 484.6 67.3346 477.316 62.2918C469.906 57.162 460.104 54.4983 447.726 54.4983H384.703ZM425.725 85.4509H439.339C442.338 85.4509 444.993 86.2154 447.019 88.091C449.041 89.9632 449.974 92.4486 449.974 95.3409C449.974 98.1363 449.016 100.558 447.051 102.45C445.04 104.386 442.383 105.231 439.339 105.231H425.725V85.4509ZM430.222 89.9476V100.734H439.339C441.537 100.734 442.963 100.144 443.932 99.2112C444.947 98.2341 445.478 97.0146 445.478 95.3409C445.478 93.4883 444.921 92.277 443.964 91.3905C443.01 90.5073 441.582 89.9476 439.339 89.9476H430.222ZM425.725 124.79H442.512C446.117 124.79 449.287 125.719 451.667 127.886C454.058 130.063 455.188 133.108 455.188 136.363C455.188 139.663 454.031 142.547 451.719 144.791C449.371 147.068 446.285 148.129 442.705 148.129H425.725V124.79ZM430.222 129.287V143.632H442.705C445.36 143.632 447.239 142.872 448.588 141.563C449.972 140.22 450.692 138.525 450.692 136.363C450.692 134.156 449.946 132.4 448.64 131.211C447.323 130.013 445.363 129.287 442.512 129.287H430.222Z" fill="black"/>
<path d="M514.871 120.887V52.2499H560.196V118.266C560.196 136.777 567.038 146.046 580.721 146.046C594.404 146.046 601.053 137.08 601.053 119.204V52.2499H646.544V119.949C646.544 141.963 640.695 158.35 629.026 169.191C617.329 180.144 601.108 185.606 580.362 185.606C559.617 185.606 543.506 180.226 532.057 169.467C520.609 158.708 514.898 142.515 514.898 120.887H514.871Z" fill="black"/>
<path d="M665.523 182.792V52.2499H710.849V182.792H665.523Z" fill="black"/>
<path d="M730.243 182.792V52.2499H775.569V143.425H841.777L841.584 182.764H730.243V182.792Z" fill="black"/>
<path d="M855.379 182.792V52.2499H911.684C931.823 52.2499 948.403 58.3467 961.369 70.5126C974.362 82.706 980.845 98.2376 980.845 117.135C980.845 136.032 974.307 151.701 961.258 164.143C948.21 176.585 931.602 182.792 911.464 182.792H855.324H855.379ZM906.829 143.26C925.478 143.26 934.802 134.68 934.802 117.521C934.802 100.362 925.285 91.5891 906.277 91.5891H900.677V143.26H906.829Z" fill="black"/>
<path d="M1104.88 52.2499L1105.07 91.5891H1040.74V102.045H1093.12V132.446H1040.74V143.453H1105.07L1104.88 182.792H995.409V52.2499H1104.88Z" fill="black"/>
<path d="M1121.84 182.792V52.2499H1186.37C1202.4 52.2499 1215.14 55.6983 1224.6 62.5951C1234.06 69.4918 1238.78 79.4232 1238.78 92.3339C1238.78 101.162 1236.82 108.859 1232.91 115.452C1228.99 122.045 1223.36 126.901 1216.02 129.99L1242.31 182.764H1195.88L1176.1 143.039H1167.17V182.764H1121.84V182.792ZM1179.08 113.41C1183.19 113.41 1186.53 112.39 1189.15 110.321C1191.77 108.279 1193.07 105.383 1193.07 101.658C1193.07 97.9341 1191.8 95.065 1189.24 93.0788C1186.7 91.0925 1183.3 90.0994 1179.08 90.0994H1167.14V113.41H1179.08Z" fill="black"/>
<path d="M1259.28 133.742C1274.31 144.915 1290.04 150.515 1306.45 150.515C1310.81 150.515 1314.48 150.019 1317.46 149.025C1320.44 148.032 1321.93 146.598 1321.93 144.722C1321.93 142.846 1320.66 141.329 1318.09 140.142C1315.56 138.956 1310.73 137.632 1303.64 136.142C1288.71 133.025 1276.52 127.783 1267.09 120.39C1257.62 112.997 1252.91 103.396 1252.91 91.5892C1252.91 78.6508 1257.82 68.416 1267.64 60.8296C1277.46 53.2432 1292.08 49.4637 1311.47 49.4637C1326.26 49.4637 1340.69 51.3948 1354.73 55.257V91.4237C1342.67 86.5683 1330.62 84.1407 1318.56 84.1407C1313.71 84.1407 1309.43 84.6924 1305.71 85.8235C1301.98 86.9546 1300.11 88.4994 1300.11 90.4857C1300.11 92.2237 1301.29 93.6582 1303.67 94.7617C1306.04 95.8928 1310.62 97.0514 1317.46 98.2928C1351.14 104.638 1368 119.121 1368 141.742C1368 154.791 1363.03 165.357 1353.08 173.44C1343.12 181.523 1328.88 185.551 1310.37 185.551C1298.31 185.551 1286.18 183.868 1274.01 180.53C1261.82 177.164 1252.08 172.833 1244.74 167.481L1259.28 133.742Z" fill="black"/>
<path d="M90.4194 9.83777C94.3114 18.35 94.1016 31.108 93.7396 40.439C93.3405 50.6915 91.6578 67.8929 78.3526 68.8803C58.839 70.3285 59.3945 41.4552 59.8758 28.3516C60.3201 16.2723 63.2453 -2.30315 79.5786 0.235296C85.3467 1.13219 88.1566 4.89254 90.4194 9.83777ZM88.3994 11.7138C86.3752 5.36155 81.1584 1.47778 74.3207 2.7614C64.3603 4.63335 62.6981 20.6663 62.406 28.7753C62.2085 34.2513 62.2744 40.4801 62.8339 45.915C63.6156 53.5221 66.1705 65.7041 75.6825 66.3583C82.2322 66.8108 86.1942 63.2356 88.3665 57.3976C88.7738 56.3074 89.2633 54.9826 89.3168 53.8512C88.457 55.0854 87.0417 56.1839 85.5071 56.365C76.8098 57.3894 76.4107 43.9977 76.1803 38.1926C75.9334 32.0296 75.8306 25.2207 77.0936 19.1564C78.0234 14.676 80.0887 9.59504 85.6305 10.3438C86.692 10.4878 87.5765 11.1008 88.4035 11.7138H88.3994Z" fill="black"/>
<path d="M88.3994 11.7138C87.5683 11.1008 86.688 10.4871 85.6266 10.3431C80.0848 9.59018 78.0236 14.6712 77.0897 19.1556C75.8307 25.2199 75.9295 32.0289 76.1763 38.1919C76.4108 43.997 76.8058 57.3886 85.5031 56.3642C87.0377 56.1832 88.453 55.0847 89.3129 53.8505C89.2635 54.9819 88.7698 56.3025 88.3625 57.3969C86.1902 63.2349 82.2283 66.8101 75.6785 66.3575C66.1706 65.6993 63.6116 53.5172 62.8299 45.9142C62.2704 40.4794 62.2046 34.2505 62.4021 28.7746C62.6942 20.6655 64.3563 4.63672 74.3167 2.76066C81.1545 1.47292 86.3712 5.36081 88.3954 11.7131L88.3994 11.7138Z" fill="white"/>
<path d="M49.2069 9.83775C53.0989 18.35 52.8891 31.108 52.527 40.439C52.1279 50.6915 50.4452 67.8928 37.14 68.8802C17.6265 70.3284 18.1819 41.4552 18.6633 28.3515C19.1076 16.2723 22.0328 -2.30317 38.366 0.235272C44.1341 1.13216 46.9441 4.89252 49.2069 9.83775ZM47.1868 11.7138C45.1626 5.36153 39.9459 1.47775 33.1081 2.76137C23.1477 4.63332 21.4856 20.6663 21.1935 28.7753C20.996 34.2512 21.0618 40.4801 21.6214 45.9149C22.403 53.522 24.9579 65.7041 34.4699 66.3583C41.0197 66.8108 44.9816 63.2356 47.1539 57.3976C47.5612 56.3073 48.0508 54.9826 48.1043 53.8512C47.2444 55.0854 45.8291 56.1839 44.2946 56.3649C35.5972 57.3894 35.1981 43.9977 34.9677 38.1926C34.7209 32.0296 34.618 25.2206 35.8811 19.1564C36.8109 14.676 38.8762 9.59501 44.418 10.3438C45.4794 10.4878 46.364 11.1008 47.1909 11.7138H47.1868Z" fill="black"/>
<path d="M47.1868 11.7138C46.3558 11.1008 45.4736 10.4873 44.4121 10.3433C38.8703 9.59037 36.8091 14.6714 35.8752 19.1558C34.6163 25.2201 34.715 32.0291 34.9619 38.1921C35.1964 43.9972 35.5913 57.3888 44.2887 56.3644C45.8233 56.1834 47.2386 55.0849 48.0984 53.8507C48.049 54.982 47.5553 56.3027 47.148 57.3971C44.9758 63.2351 41.0138 66.8103 34.464 66.3577C24.9562 65.6995 22.3972 53.5174 21.6155 45.9144C21.056 40.4796 20.9901 34.2507 21.1876 28.7748C21.4797 20.6657 23.1418 4.63691 33.1023 2.76085C39.94 1.47311 45.1568 5.361 47.1809 11.7133L47.1868 11.7138Z" fill="white"/>
</svg>
